HIERARCHY
ROOT Hips
{
	OFFSET 0.000000 0.000000 0.000000 
	CHANNELS 6 Xposition Yposition Zposition Zrotation Yrotation Xrotation
	JOINT LeftUpLeg
	{
		OFFSET 1.363060 -1.794630 0.839290 
		CHANNELS 3 Zrotation Yrotation Xrotation
		JOINT LeftLeg
		{
			OFFSET 2.448110 -6.726130 0.000000 
			CHANNELS 3 Zrotation Yrotation Xrotation
			JOINT LeftFoot
			{
				OFFSET 2.562200 -7.039590 0.000000 
				CHANNELS 3 Zrotation Yrotation Xrotation
				JOINT LeftToeBase
				{
					OFFSET 0.157640 -0.433110 2.322550 
					CHANNELS 3 Zrotation Yrotation Xrotation
					End Site
					{
						OFFSET 0.000000 0.000000 0.000000 
					}
				}
			}
		}
	}
	JOINT RightUpLeg
	{
		OFFSET -1.305520 -1.794630 0.839290 
		CHANNELS 3 Zrotation Yrotation Xrotation
		JOINT RightLeg
		{
			OFFSET -2.542530 -6.985550 0.000000 
			CHANNELS 3 Zrotation Yrotation Xrotation
			JOINT RightFoot
			{
				OFFSET -2.568260 -7.056230 0.000000 
				CHANNELS 3 Zrotation Yrotation Xrotation
				JOINT RightToeBase
				{
					OFFSET -0.164730 -0.452590 2.363150 
					CHANNELS 3 Zrotation Yrotation Xrotation
					End Site
					{
						OFFSET 0.000000 0.000000 0.000000 
					}
				}
			}
		}
	}
	JOINT Spine
	{
		OFFSET 0.028270 2.035590 -0.193380 
		CHANNELS 3 Zrotation Yrotation Xrotation
		JOINT Spine1
		{
			OFFSET 0.056720 2.048850 -0.042750 
			CHANNELS 3 Zrotation Yrotation Xrotation
			JOINT Neck1
			{
				OFFSET -0.054170 1.746240 0.172020 
				CHANNELS 3 Zrotation Yrotation Xrotation
				JOINT Head
				{
					OFFSET 0.104070 1.761360 -0.123970 
					CHANNELS 3 Zrotation Yrotation Xrotation
					End Site
					{
						OFFSET 0.000000 0.000000 0.000000 
					}
				}
			}
			JOINT LeftArm
			{
				OFFSET 3.362410 1.200890 -0.311210 
				CHANNELS 3 Zrotation Yrotation Xrotation
				JOINT LeftForeArm
				{
					OFFSET 4.983000 -0.000000 -0.000000 
					CHANNELS 3 Zrotation Yrotation Xrotation
					JOINT LeftHand
					{
						OFFSET 3.483560 -0.000000 -0.000000 
						CHANNELS 3 Zrotation Yrotation Xrotation
						JOINT LeftHandIndex1
						{
							OFFSET 0.715260 -0.000000 -0.000000 
							CHANNELS 3 Zrotation Yrotation Xrotation
							End Site
							{
								OFFSET 0.000000 0.000000 0.000000 
							}
						}
					}
				}
			}
			JOINT RightArm
			{
				OFFSET -3.136600 1.374050 -0.404650 
				CHANNELS 3 Zrotation Yrotation Xrotation
				JOINT RightForeArm
				{
					OFFSET -5.241900 -0.000000 -0.000000 
					CHANNELS 3 Zrotation Yrotation Xrotation
					JOINT RightHand
					{
						OFFSET -3.444170 -0.000000 -0.000000 
						CHANNELS 3 Zrotation Yrotation Xrotation
						JOINT RightHandIndex1
						{
							OFFSET -0.622530 -0.000000 -0.000000 
							CHANNELS 3 Zrotation Yrotation Xrotation
							End Site
							{
								OFFSET 0.000000 0.000000 0.000000 
							}
						}
					}
				}
			}
		}
	}
}
MOTION
Frames: 9
Frame Time: 0.041667
4.944613 18.117306 6.400776 -176.010590 48.686849 -175.572840 -18.665528 -5.609504 -22.616276 -0.215699 7.504241 21.898240 0.758182 -2.820790 15.902404 0.024900 1.019200 2.801700 22.146263 -5.555441 2.604845 -1.692201 -8.105206 25.553011 -0.824077 3.817304 3.177927 -0.405200 4.086500 -11.320200 -0.029937 8.320660 1.806212 -5.866200 4.541592 -1.909438 2.330073 13.731384 36.270739 5.423500 5.132500 19.213800 -82.814945 11.674583 18.837786 18.474664 -26.550526 -5.304402 -1.136706 -2.369217 7.035923 -7.125000 0.000000 0.000000 81.858747 6.623294 19.519880 -22.797492 32.325412 -7.187713 0.330813 -0.064902 3.679629 7.125000 0.000000 0.000000 
4.825114 18.112791 6.497800 -176.023408 49.131060 -175.425318 -18.439205 -6.083454 -22.852262 -0.292627 7.360428 21.407153 0.718301 -1.971893 16.298169 0.040800 1.303000 3.582800 22.242139 -5.131334 2.714634 -1.500274 -7.752319 24.422291 -0.754494 3.302745 2.181077 -0.516600 4.606900 -12.790600 -0.048560 8.443675 1.843744 -6.030369 4.611706 -1.858155 2.262621 13.626998 36.339772 5.404000 5.058800 19.285600 -82.949214 11.593428 18.829743 18.483234 -26.547422 -5.304435 -1.166400 -2.352456 7.280436 -7.125000 0.000000 0.000000 81.686280 7.073364 19.897305 -22.956220 32.500925 -7.279453 0.337721 -0.058649 3.542797 7.125000 0.000000 0.000000 
4.703809 18.105867 6.595426 -175.533167 49.649290 -174.813704 -17.859166 -6.453418 -23.169056 -0.389540 7.174524 20.783514 0.698412 -1.181100 16.827788 0.023800 0.995400 2.736300 22.734731 -4.401405 2.747330 -1.339029 -7.459501 23.484232 -0.645672 2.580777 1.326717 -0.569400 4.832800 -13.432400 -0.000039 8.622712 1.870505 -6.221812 4.705200 -1.740798 2.165872 13.561132 36.329746 5.383800 4.983100 19.274500 -83.054195 11.292534 18.799264 18.384377 -26.398724 -5.242764 -1.179211 -2.335334 7.544705 -7.125000 0.000000 0.000000 81.469754 7.544631 20.148241 -23.091785 32.653151 -7.359645 0.341239 -0.046577 3.548416 7.125000 0.000000 0.000000 
4.588123 18.099546 6.684624 -175.227854 50.239642 -174.338666 -17.462608 -6.638733 -23.490278 -0.479650 6.993672 20.185148 0.679367 -0.481074 17.276171 0.006300 0.511100 1.404400 22.985616 -3.775063 2.611418 -1.227762 -7.255519 22.836024 -0.608865 2.302104 0.682977 -0.505300 4.556900 -12.649000 0.015200 8.845665 1.902432 -6.398960 4.826384 -1.560457 1.999491 13.498501 36.364966 5.322200 4.912200 19.305200 -83.128432 11.096452 18.838398 18.320417 -26.303579 -5.202594 -1.184880 -2.339053 7.776857 -7.125000 0.000000 0.000000 81.322738 8.024854 20.159985 -23.078806 32.648001 -7.354175 0.338350 -0.053120 3.765575 7.125000 0.000000 0.000000 
4.484577 18.100650 6.751548 -175.794270 51.015788 -174.683063 -17.759860 -6.616074 -23.597898 -0.557693 6.821082 19.646309 0.649143 0.090613 17.522139 0.001100 0.212000 0.582600 22.361246 -3.727394 2.344368 -1.167511 -7.131056 22.449718 -0.716888 2.847932 0.238556 -0.372200 3.918600 -10.847700 -0.072480 9.092092 2.000321 -6.457904 4.974545 -1.249761 1.860941 13.414444 36.474916 5.267400 4.845900 19.371400 -83.203128 10.994313 18.732655 18.270363 -26.236851 -5.172007 -1.203113 -2.322991 8.112773 -7.125000 0.000000 0.000000 81.192471 8.426341 20.287755 -23.027057 32.601357 -7.326210 0.338332 -0.060898 3.868030 7.125000 0.000000 0.000000 
4.354844 18.096436 6.870646 -175.488255 51.313816 -174.311140 -17.264579 -6.794741 -23.980096 -0.647179 6.626918 19.022101 0.671932 0.611453 18.249767 -0.000000 0.008800 0.024200 22.797344 -3.136571 1.821756 -1.127248 -7.081864 22.272498 -0.643496 2.364498 -0.253336 -0.247600 3.201900 -8.841500 -0.059620 9.141858 1.958437 -6.649069 4.989282 -1.506399 1.760949 13.314525 36.525479 5.229300 4.769600 19.455900 -83.277121 10.655277 18.382198 18.154206 -26.055888 -5.093973 -1.232165 -2.305557 8.314273 -7.125000 0.000000 0.000000 81.140392 8.826237 20.395593 -22.991837 32.549513 -7.300913 0.342982 -0.055834 3.973433 7.125000 0.000000 0.000000 
4.231432 18.095734 6.977603 -175.475633 51.641282 -174.141130 -16.985760 -6.930625 -24.303984 -0.727717 6.444975 18.443249 0.647398 1.173006 18.489341 0.002500 -0.324900 -0.892600 22.953012 -2.496202 1.281443 -1.109540 -7.084199 22.246643 -0.586523 1.972498 -0.753060 -0.166100 2.625800 -7.238600 -0.054212 9.161460 1.909147 -6.701083 4.988006 -1.744944 1.620208 13.235618 36.506582 5.152700 4.712500 19.444100 -83.510575 10.711491 18.092472 18.254472 -26.169598 -5.140036 -1.273544 -2.309730 8.145134 -7.125000 0.000000 0.000000 81.108400 9.060062 20.442017 -22.958322 32.499736 -7.275731 0.349568 -0.055666 4.135419 7.125000 0.000000 0.000000 
4.116548 18.097941 7.069911 -175.489470 51.958855 -173.993417 -16.794136 -6.935005 -24.646402 -0.783638 6.322062 18.060737 0.625408 1.312299 18.313680 0.022200 -0.961300 -2.642200 22.981577 -2.042170 0.731233 -1.106000 -7.103684 22.286442 -0.609795 2.022874 -1.229796 -0.149200 2.489200 -6.859700 -0.022342 9.162355 1.863462 -6.657860 4.979366 -1.901215 1.516453 13.175647 36.557902 5.108400 4.660300 19.464200 -83.853384 11.143832 17.831272 18.535844 -26.532769 -5.298345 -1.281476 -2.315322 7.888910 -7.125000 0.000000 0.000000 81.014207 9.173525 20.552374 -22.955812 32.492537 -7.273605 0.346542 -0.057159 4.236941 7.125000 0.000000 0.000000 
4.007484 18.096737 7.150179 -175.510631 52.311901 -173.853163 -16.599917 -6.992703 -24.933381 -0.817468 6.254602 17.851513 0.589871 1.222157 17.738332 0.073100 -1.744400 -4.799800 22.911620 -1.775593 0.175399 -1.096792 -7.099467 22.262963 -0.670479 2.299471 -1.501229 -0.150700 2.501900 -6.894900 0.051162 8.948828 1.928178 -6.537916 4.882423 -1.720131 1.414294 13.437944 36.614105 5.165400 4.654500 19.525800 -84.491098 11.236524 16.683381 18.758319 -26.799668 -5.414010 -1.239449 -2.352680 8.102313 -7.125000 0.000000 0.000000 80.747322 9.523328 21.199441 -22.898711 32.433750 -7.245351 0.337958 -0.055054 4.233390 7.125000 0.000000 0.000000 
